<svg xmlns="http://www.w3.org/2000/svg" width="128" height="128" viewBox="0 0 128 128"><g xmlns="http://www.w3.org/2000/svg" class="icon"><path d="M57.157 11.811L9.435 31.558c-2.654 1.098-2.627 4.867.044 5.926l47.922 19.004a17.78 17.78 0 0013.11 0l47.922-19.004c2.67-1.058 2.698-4.827.043-5.926L70.755 11.811a17.783 17.783 0 00-13.598 0" fill="#ffbf00"/><path d="M68.208 66.866v47.473c0 2.258 2.276 3.805 4.375 2.973l53.4-20.728A3.197 3.197 0 00128 93.612V46.138c0-2.258-2.277-3.804-4.376-2.972l-53.4 20.727a3.198 3.198 0 00-2.018 2.973" fill="#26b5f8"/><path d="M55.738 69.315l-15.847 7.652-1.61.778L4.827 93.774C2.707 94.797 0 93.252 0 90.896V46.337c0-.852.437-1.588 1.023-2.142a3.635 3.635 0 01.81-.607c.8-.48 1.94-.608 2.91-.224l50.729 20.1c2.578 1.022 2.78 4.636.266 5.85" fill="#ed3049"/><path d="M55.738 69.315l-15.847 7.652L1.023 44.195a3.635 3.635 0 01.81-.607c.799-.48 1.94-.607 2.909-.224l50.73 20.1c2.578 1.023 2.78 4.636.266 5.851" fill-opacity=".25"/></g></svg>