<?xml version="1.0" encoding="UTF-8"?>
<svg width="131px" height="292px" viewBox="0 0 131 292" version="1.1" xmlns="http://www.w3.org/2000/svg" xmlns:xlink="http://www.w3.org/1999/xlink">
    <!-- Generator: Sketch 61.2 (89653) - https://sketch.com -->
    <title>MongoDB_Logo</title>
    <desc>Created with Sketch.</desc>
    <g id="Page-1" stroke="none" stroke-width="1" fill="none" fill-rule="evenodd">
        <g id="MongoDB_Logo" fill-rule="nonzero">
            <path d="M128.44,116.34 C113.13,48.8 81.22,30.82 73.08,18.11 C69.7234334,12.5109342 66.7499616,6.69094779 64.18,0.69 C63.75,6.69 62.96,10.47 57.86,15.02 C47.62,24.15 4.13,59.59 0.47,136.33 C-2.94,207.88 53.07,252 60.47,256.56 C66.16,259.36 73.09,256.62 76.47,254.05 C103.47,235.52 140.36,186.12 128.47,116.34" id="Path" fill="#10AA50"></path>
            <path d="M66.5,218.46 C65.09,236.17 64.08,246.46 60.5,256.58 C60.5,256.58 62.85,273.44 64.5,291.3 L70.34,291.3 C71.7330342,278.723202 73.8599947,266.238579 76.71,253.91 C69.15,250.19 66.79,234 66.5,218.46 Z" id="Path" fill="#B8C4C2"></path>
            <path d="M76.7,253.92 L76.7,253.92 C69.06,250.39 66.85,233.86 66.51,218.46 C68.3994008,193.056587 68.9501629,167.571321 68.16,142.11 C67.76,128.75 68.35,18.37 64.87,2.21 C67.2505112,7.68322766 69.9932594,12.9916649 73.08,18.1 C81.22,30.82 113.14,48.8 128.44,116.34 C140.36,186 103.67,235.27 76.7,253.92 Z" id="Path" fill="#12924F"></path>
        </g>
    </g>
</svg>