<svg xmlns="http://www.w3.org/2000/svg" height="100" width="100" version="1.1" viewBox="0 0 100 100" id="hs-nav-v4--logo"><defs id="defs15"><clipPath id="a"><path id="path12" d="M42.87 46.9h156.42v163.35H42.87z" fill="none" class="cls-1"/></clipPath><style id="style10">#hs-nav-v4--logo .cls-2{clip-path:url(#a)}</style></defs><g transform="translate(-24.609 -29.332) scale(.61607)" id="g21" clip-path="url(#a)" class="cls-2"><g id="g19" clip-path="url(#a)" class="cls-2"><path id="path17" fill="#ff7a59" d="M162.79 101.25V82a14.84 14.84 0 008.56-13.38v-.45a14.87 14.87 0 00-14.83-14.83h-.45a14.87 14.87 0 00-14.83 14.83v.45A14.84 14.84 0 00149.8 82v19.29a42.06 42.06 0 00-20 8.8L76.86 68.86a16.89 16.89 0 10-7.91 10.29L121 119.67a42.18 42.18 0 00.65 47.56l-15.84 15.84a13.6 13.6 0 00-3.93-.64 13.75 13.75 0 1013.75 13.75 13.56 13.56 0 00-.64-3.93l15.67-15.67a42.25 42.25 0 1032.1-75.33m-6.49 63.42A21.68 21.68 0 11178 143a21.68 21.68 0 01-21.68 21.68" class="cls-3"/></g></g></svg>